<svg version="1" xmlns="http://www.w3.org/2000/svg" width="933.333" height="933.333" viewBox="0 0 700.000000 700.000000"><path d="M197 83.4l-54.5 18.3v439.8l.2-219.3c.2-120.5.4-219.2.6-219.2.1 0 24.5 8.1 54.2 18 29.7 9.9 55.1 18.2 56.4 18.5 1.3.2 48.4 15.8 104.7 34.5L461 208.2v67c0 63.4-.1 67-1.7 66.3-1-.4-7.2-2.6-13.8-4.8-11.8-4.1-12.2-4.2-26-4.2-13.1 0-14.4.2-19.8 2.7-20.2 9.5-31.4 37.7-22.5 56.9 4.9 10.5 12.5 17.3 32.8 29.4 19.7 11.7 24.6 16.7 23.5 24-1.7 11.5-12.1 15.3-28.1 10.4-13.5-4.2-24.6-10.8-38.5-23.1-8.5-7.5-9-7.8-9.8-5.6-.4 1.3-2.8 8.3-5.2 15.6l-4.4 13.3 2.5 2c12.5 9.9 31.9 20.3 47.4 25.4 13.4 4.5 21.7 5.8 33.4 5.3 11.5-.5 18.3-3.1 25.8-10l4.7-4.3-.7 86.4c-.6 71.9-.5 86.3.6 85.9.7-.3 25.9-8.7 56.1-18.7l54.7-18.3-.2-219.6-.3-219.7L414 117.8c-86.6-28.9-158.6-52.6-160-52.6-1.4 0-27 8.2-57 18.2zm238 280.2c6.9 1.6 16.3 5.4 22.3 9.1l3.7 2.3v39l-5.9-4.8c-3.3-2.6-13-8.7-21.6-13.7-17.8-10.2-22.5-14.4-22.5-20.3 0-7.5 6-13.1 14-13.1 1.9-.1 6.4.6 10 1.5z"/><path d="M168 251.2c0 .6-2.7 34.7-6 75.6-3.4 41-5.7 74.9-5.3 75.3.6.5 22.6 7.9 39.9 13.3 1.8.6 5.3-4.7 31.5-47.8 16.1-26.7 29.5-48.4 29.5-48.3.1.1-1.8 24.7-4.2 54.7-2.4 30-4.4 55.4-4.4 56.5 0 1.8 2.7 3 21.1 8.9 11.7 3.7 21.5 6.4 21.9 5.9.4-.4 17.7-28.9 38.5-63.3s38.5-63.5 39.2-64.7c1.4-2.1 1.2-2.2-15.5-7.7-9.4-3.1-17.5-5.6-18-5.6-.6 0-13.5 20.5-28.8 45.5-15.2 25.1-27.9 45.4-28.1 45.1-.4-.4 7.2-96.4 8.1-103.3l.5-3.2-16.9-5.6c-9.2-3-17.4-5.5-18.2-5.5-.8 0-13.9 20.7-29.3 46-15.3 25.3-28 45.9-28 45.7-.1-.1 1.7-24.3 4.1-53.7 2.4-29.4 4.1-53.7 3.6-54.1-.8-.9-32.3-10.9-34-10.9-.7 0-1.2.5-1.2 1.2z"/></svg>